<?xml version="1.0" encoding="UTF-8" standalone="no"?><!DOCTYPE svg PUBLIC "-//W3C//DTD SVG 1.1//EN" "http://www.w3.org/Graphics/SVG/1.1/DTD/svg11.dtd"><svg width="50" height="50" viewBox="0 0 284 284" version="1.1" xmlns="http://www.w3.org/2000/svg" xmlns:xlink="http://www.w3.org/1999/xlink" xml:space="preserve" xmlns:serif="http://www.serif.com/" style="fill-rule:evenodd;clip-rule:evenodd;stroke-linecap:round;stroke-linejoin:round;stroke-miterlimit:1.5;"><g><rect x="38.968" y="46.061" width="197.141" height="174.325" style="fill:#ebebeb;"/><path d="M187.621,169.014l56.875,29.016l-15.769,10.662l13.549,19.04l-11.405,9.672l-15.463,-17.897l-13.243,14.47l-14.544,-64.963Z" style="fill:#f59600;stroke:#6b747a;stroke-width:6.67px;"/><path d="M236.109,75.927l0,-29.866l-197.141,-0l0,30.247" style="fill:#00a0eb;stroke:#6b747a;stroke-width:6.67px;"/><path d="M236.109,178.3l0,-102.373" style="fill:none;stroke:#6b747a;stroke-width:6.67px;"/><circle cx="59.88" cy="60.145" r="2.358" style="fill:#6b747a;stroke:#6b747a;stroke-width:6.17px;"/><circle cx="81.694" cy="60.145" r="2.358" style="fill:#6b747a;stroke:#6b747a;stroke-width:6.17px;"/><circle cx="103.98" cy="60.145" r="2.358" style="fill:#6b747a;stroke:#6b747a;stroke-width:6.17px;"/><circle cx="125.912" cy="60.145" r="2.358" style="fill:#6b747a;stroke:#6b747a;stroke-width:6.17px;"/><path d="M38.968,75.927l197.141,0" style="fill:none;stroke:#6b747a;stroke-width:6.67px;"/><path d="M38.968,76.308l0,144.078l146.557,0" style="fill:none;stroke:#6b747a;stroke-width:6.67px;"/><path d="M38.968,100.204l197.141,-0" style="fill:none;stroke:#6b747a;stroke-width:6.67px;"/><path d="M38.968,123.397l197.141,-0" style="fill:none;stroke:#6b747a;stroke-width:6.67px;"/><path d="M38.968,146.941l197.141,0" style="fill:none;stroke:#6b747a;stroke-width:6.67px;"/><path d="M38.968,171.892l135.644,-0" style="fill:none;stroke:#6b747a;stroke-width:6.67px;"/><path d="M79.161,76.308l0,144.078" style="fill:none;stroke:#6b747a;stroke-width:6.67px;"/><path d="M118.663,76.308l-0,144.078" style="fill:none;stroke:#6b747a;stroke-width:6.67px;"/><path d="M157.998,76.308l0,144.078" style="fill:none;stroke:#6b747a;stroke-width:6.67px;"/><path d="M197.149,76.308l-0,82.455" style="fill:none;stroke:#6b747a;stroke-width:6.67px;"/><path d="M38.968,195.327l139.861,-0" style="fill:none;stroke:#6b747a;stroke-width:6.67px;"/></g></svg>